<svg xmlns="http://www.w3.org/2000/svg" viewBox="0 0 200 200">
  <circle cx="100" cy="100" r="96" fill="#f2f2f0"/>
  <circle cx="100" cy="100" r="96" fill="none" stroke="#111111" stroke-width="3"/>

  <!-- QR-Finder-Pattern, klassische Drei-Ecken-Anordnung -->
  <g fill="#111111">
    <rect x="48" y="48" width="34" height="34"/>
    <rect x="118" y="48" width="34" height="34"/>
    <rect x="48" y="118" width="34" height="34"/>
  </g>
  <g fill="#f2f2f0">
    <rect x="56" y="56" width="18" height="18"/>
    <rect x="126" y="56" width="18" height="18"/>
    <rect x="56" y="126" width="18" height="18"/>
  </g>
  <g fill="#111111">
    <rect x="63" y="63" width="4" height="4"/>
    <rect x="133" y="63" width="4" height="4"/>
    <rect x="63" y="133" width="4" height="4"/>
  </g>

  <!-- QR-Module -->
  <g fill="#111111">
    <rect x="126" y="100" width="10" height="10"/>
    <rect x="126" y="118" width="10" height="10"/>
    <rect x="144" y="118" width="10" height="10"/>
    <rect x="118" y="136" width="10" height="10"/>
    <rect x="136" y="144" width="10" height="10"/>
  </g>

  <!-- Orangener Akzent (Marke der Original-App) -->
  <path d="M100 84 L114 108 L86 108 Z" fill="#ff7a1a"/>
</svg>
